<svg xmlns="http://www.w3.org/2000/svg" viewBox="0 0 1200 630" role="img" aria-label="Encore - turn concert setlists into playlists">
  <rect width="1200" height="630" fill="#f5ecd7"/>

  <!-- sunburst, top-right corner -->
  <g fill="#e7b84b" opacity="0.85">
    <g>
      <polygon points="1120,90 1160,90 1140,-90"/>
      <polygon points="1120,90 1160,90 1140,-90" transform="rotate(40 1140 90)"/>
      <polygon points="1120,90 1160,90 1140,-90" transform="rotate(80 1140 90)"/>
      <polygon points="1120,90 1160,90 1140,-90" transform="rotate(120 1140 90)"/>
      <polygon points="1120,90 1160,90 1140,-90" transform="rotate(160 1140 90)"/>
      <polygon points="1120,90 1160,90 1140,-90" transform="rotate(200 1140 90)"/>
      <polygon points="1120,90 1160,90 1140,-90" transform="rotate(240 1140 90)"/>
      <polygon points="1120,90 1160,90 1140,-90" transform="rotate(280 1140 90)"/>
      <polygon points="1120,90 1160,90 1140,-90" transform="rotate(320 1140 90)"/>
    </g>
  </g>

  <!-- ticket mark (app icon, scaled) -->
  <g transform="translate(150 200) scale(0.45)">
    <rect width="512" height="512" rx="112" fill="#2b2118"/>
    <g transform="rotate(-7 256 256)">
      <rect x="88" y="168" width="336" height="176" rx="28" fill="#f5ecd7"/>
      <circle cx="306" cy="168" r="15" fill="#2b2118"/>
      <circle cx="306" cy="344" r="15" fill="#2b2118"/>
      <line x1="306" y1="192" x2="306" y2="320" stroke="#2b2118" stroke-width="6" stroke-dasharray="2 17" stroke-linecap="round"/>
      <rect x="126" y="196" width="34" height="120" rx="17" fill="#e0662e"/>
      <rect x="150" y="196" width="118" height="32" rx="16" fill="#e0662e"/>
      <rect x="150" y="240" width="92" height="32" rx="16" fill="#e0662e"/>
      <rect x="150" y="284" width="70" height="32" rx="16" fill="#e0662e"/>
      <path d="M348 230 L348 282 L392 256 Z" fill="#e7b84b"/>
    </g>
  </g>

  <!-- wordmark + tagline (font-family falls back to system bold if Fredoka is absent) -->
  <text x="418" y="300" font-family="Fredoka, 'Trebuchet MS', Verdana, sans-serif" font-size="150" font-weight="700" fill="#2b2118">Encore</text>
  <rect x="422" y="330" width="290" height="12" rx="6" fill="#e0662e"/>
  <text x="422" y="398" font-family="Nunito, Verdana, sans-serif" font-size="31" fill="#6b5844">Turn concert setlists into playlists.</text>
</svg>
